<svg width="90" height="100" viewBox="0 0 90 100" fill="none" xmlns="http://www.w3.org/2000/svg">
<g filter="url(#filter0_d_1244_4537)">
<path d="M35.7251 29.3918L31.9918 23.2085C30.5918 20.9335 27.821 19.6501 25.2251 20.4085C21.3168 21.5751 19.8001 25.9793 21.7543 29.2168L25.6043 35.5459C26.0418 36.2168 26.946 36.4501 27.6168 36.0418L35.2293 31.4043C35.9293 30.9668 36.1626 30.0626 35.7251 29.3918Z" fill="white"/>
</g>
<g filter="url(#filter1_d_1244_4537)">
<path d="M67.5753 56.5455L59.3794 45.4621C56.5211 41.6121 51.5628 39.8038 46.8961 41.058C46.8961 41.0288 46.8669 41.0288 46.8669 40.9996L42.0253 33.0371C41.1503 31.6663 39.3419 31.2288 37.9711 32.0746L27.8503 38.2288C26.4503 39.0455 26.0128 40.883 26.8586 42.283L31.6711 50.2455C31.6711 50.2455 31.6711 50.2746 31.7003 50.2746C28.4628 53.8621 27.7628 59.083 29.9211 63.4288L35.9878 75.7955C37.8544 79.6163 42.2586 81.0746 45.9919 79.1496C46.2836 79.0038 46.3711 78.6538 46.1961 78.3621L41.6461 70.8371C41.0044 69.7871 41.3253 68.4455 42.3753 67.7746C43.4253 67.1621 44.7669 67.483 45.4378 68.5038L50.0169 76.0288C50.1919 76.2913 50.5419 76.3788 50.8044 76.233L53.6044 74.5413C53.8669 74.3663 53.9544 74.0163 53.8086 73.7538L49.2294 66.2288C48.6169 65.1788 48.9378 63.8371 49.9586 63.1663C51.0378 62.5538 52.3794 62.8746 53.0211 63.8955L57.6003 71.4205C57.7753 71.683 58.1253 71.7705 58.3878 71.6246L61.1878 69.933C61.4503 69.758 61.5378 69.408 61.3919 69.1455L56.8128 61.6205C56.2003 60.5705 56.5211 59.2288 57.5419 58.558C58.6211 57.9455 59.9628 58.2663 60.6044 59.2871L65.2128 66.783C65.3878 67.0455 65.7378 67.133 66.0003 66.958C69.3836 64.5371 70.1419 59.9871 67.5753 56.5455Z" fill="white"/>
</g>
<defs>
<filter id="filter0_d_1244_4537" x="0.90332" y="0.189941" width="55.0435" height="56.0537" filterUnits="userSpaceOnUse" color-interpolation-filters="sRGB">
<feFlood flood-opacity="0" result="BackgroundImageFix"/>
<feColorMatrix in="SourceAlpha" type="matrix" values="0 0 0 0 0 0 0 0 0 0 0 0 0 0 0 0 0 0 127 0" result="hardAlpha"/>
<feOffset/>
<feGaussianBlur stdDeviation="10"/>
<feComposite in2="hardAlpha" operator="out"/>
<feColorMatrix type="matrix" values="0 0 0 0 1 0 0 0 0 1 0 0 0 0 1 0 0 0 0.46 0"/>
<feBlend mode="normal" in2="BackgroundImageFix" result="effect1_dropShadow_1244_4537"/>
<feBlend mode="normal" in="SourceGraphic" in2="effect1_dropShadow_1244_4537" result="shape"/>
</filter>
<filter id="filter1_d_1244_4537" x="6.42822" y="11.6431" width="82.676" height="88.353" filterUnits="userSpaceOnUse" color-interpolation-filters="sRGB">
<feFlood flood-opacity="0" result="BackgroundImageFix"/>
<feColorMatrix in="SourceAlpha" type="matrix" values="0 0 0 0 0 0 0 0 0 0 0 0 0 0 0 0 0 0 127 0" result="hardAlpha"/>
<feOffset/>
<feGaussianBlur stdDeviation="10"/>
<feComposite in2="hardAlpha" operator="out"/>
<feColorMatrix type="matrix" values="0 0 0 0 1 0 0 0 0 1 0 0 0 0 1 0 0 0 0.46 0"/>
<feBlend mode="normal" in2="BackgroundImageFix" result="effect1_dropShadow_1244_4537"/>
<feBlend mode="normal" in="SourceGraphic" in2="effect1_dropShadow_1244_4537" result="shape"/>
</filter>
</defs>
</svg>
