<svg width="93" height="100" viewBox="0 0 93 100" fill="none" xmlns="http://www.w3.org/2000/svg">
<g filter="url(#filter0_d_1244_4538)">
<path d="M65.4628 31.6378L31.2211 65.8794C29.9378 67.1628 27.7795 66.9878 26.7295 65.4711C23.1128 60.1919 20.9836 53.9503 20.9836 47.5336V34.7294C20.9836 32.3378 22.792 29.6253 25.0086 28.7211L41.2545 22.0711C44.9295 20.5544 49.0128 20.5544 52.6878 22.0711L64.5003 26.8836C66.4253 27.6711 66.9211 30.1794 65.4628 31.6378Z" fill="white"/>
</g>
<g filter="url(#filter1_d_1244_4538)">
<path d="M68.2041 35.6338C70.0999 34.0297 72.9874 35.4005 72.9874 37.8797V47.5338C72.9874 61.7963 62.6333 75.1547 48.4874 79.063C47.5249 79.3255 46.4749 79.3255 45.4833 79.063C41.3416 77.8963 37.4916 75.9422 34.1958 73.3755C32.7958 72.2963 32.6499 70.2547 33.8749 69.0005C40.2333 62.4963 58.8416 43.538 68.2041 35.6338Z" fill="white"/>
</g>
<defs>
<filter id="filter0_d_1244_4538" x="0.983643" y="0.933594" width="85.325" height="85.8032" filterUnits="userSpaceOnUse" color-interpolation-filters="sRGB">
<feFlood flood-opacity="0" result="BackgroundImageFix"/>
<feColorMatrix in="SourceAlpha" type="matrix" values="0 0 0 0 0 0 0 0 0 0 0 0 0 0 0 0 0 0 127 0" result="hardAlpha"/>
<feOffset/>
<feGaussianBlur stdDeviation="10"/>
<feComposite in2="hardAlpha" operator="out"/>
<feColorMatrix type="matrix" values="0 0 0 0 1 0 0 0 0 1 0 0 0 0 1 0 0 0 0.46 0"/>
<feBlend mode="normal" in2="BackgroundImageFix" result="effect1_dropShadow_1244_4538"/>
<feBlend mode="normal" in="SourceGraphic" in2="effect1_dropShadow_1244_4538" result="shape"/>
</filter>
<filter id="filter1_d_1244_4538" x="13.0432" y="14.9429" width="79.9443" height="84.3169" filterUnits="userSpaceOnUse" color-interpolation-filters="sRGB">
<feFlood flood-opacity="0" result="BackgroundImageFix"/>
<feColorMatrix in="SourceAlpha" type="matrix" values="0 0 0 0 0 0 0 0 0 0 0 0 0 0 0 0 0 0 127 0" result="hardAlpha"/>
<feOffset/>
<feGaussianBlur stdDeviation="10"/>
<feComposite in2="hardAlpha" operator="out"/>
<feColorMatrix type="matrix" values="0 0 0 0 1 0 0 0 0 1 0 0 0 0 1 0 0 0 0.46 0"/>
<feBlend mode="normal" in2="BackgroundImageFix" result="effect1_dropShadow_1244_4538"/>
<feBlend mode="normal" in="SourceGraphic" in2="effect1_dropShadow_1244_4538" result="shape"/>
</filter>
</defs>
</svg>
